<svg width="512" height="512" viewBox="0 0 512 512" fill="none" xmlns="http://www.w3.org/2000/svg">
<rect width="512" height="512" rx="16" fill="#F8F8F7"/>
<path d="M332.22 353.287C345.552 365.316 346.757 386.211 332.265 396.815C318.188 407.115 302.447 415.068 285.647 420.285C258.443 428.734 229.466 429.701 201.759 423.083C174.053 416.466 148.64 402.508 128.19 382.678C107.741 362.847 93.0095 337.875 85.5439 310.385C78.0783 282.895 78.1541 253.902 85.7632 226.451C93.3723 199 108.234 174.106 128.787 154.382C149.34 134.659 174.825 120.834 202.566 114.362C219.697 110.364 237.298 109.262 254.652 111.027C272.517 112.844 282.047 131.477 276.632 148.598C271.216 165.719 252.701 174.582 234.759 175.32C228.916 175.56 223.084 176.349 217.342 177.689C200.975 181.508 185.938 189.664 173.812 201.301C161.686 212.938 152.918 227.625 148.428 243.821C143.939 260.017 143.894 277.123 148.299 293.342C152.704 309.562 161.395 324.295 173.46 335.995C185.525 347.695 200.519 355.93 216.866 359.834C233.213 363.739 250.309 363.168 266.36 358.184C271.991 356.435 277.42 354.165 282.583 351.416C298.433 342.977 318.888 341.257 332.22 353.287Z" fill="#CF313E"/>
<path d="M308.631 136.373C312.226 139.623 312.226 145.268 308.631 148.518L253.048 198.762C247.784 203.52 239.372 199.785 239.372 192.689V92.2021C239.372 85.1065 247.784 81.3712 253.047 86.1294L308.631 136.373Z" fill="#CF313E"/>
<path d="M302.171 188.419C302.228 189.328 302.313 190.239 302.429 191.15C303.227 197.441 305.302 203.129 308.323 208.058C307.138 213.795 307.596 219.949 310.031 225.814C314.3 236.094 322.866 242.177 332.184 243.976C332.174 244.952 332.23 245.937 332.355 246.924C333.984 259.764 346.108 267.655 357.782 265.414L364.339 345.786C364.916 352.858 356.836 357.265 351.203 352.95L239.974 267.757C236.127 264.81 235.668 259.184 238.987 255.652L302.171 188.419Z" fill="#FFA500"/>
<ellipse cx="344" cy="211.515" rx="4.09302" ry="4.09303" fill="#FFA500"/>
<ellipse cx="382.884" cy="199.236" rx="6.13953" ry="6.13954" fill="#FFA500"/>
<circle cx="397.209" cy="163.422" r="10.2326" fill="#FFA500"/>
<ellipse cx="425.86" cy="181.841" rx="6.13954" ry="6.13953" fill="#FFA500"/>
</svg>
