<svg width="500" height="400" xmlns="http://www.w3.org/2000/svg" xml:space="preserve"><g stroke="null"><path fill="#AA4B22" d="M397.36 242.144c-4.155.159-8.389-.103-12.644-.84-32.598-5.669-54.43-36.69-48.761-69.285a59.6 59.6 0 0 1 11.475-26.176c-8.493-8.953-12.8-21.665-10.52-34.755.345-2.01.846-3.958 1.466-5.839a138.025 138.025 0 0 0-19.228-4.805c-74.48-12.951-145.359 36.928-158.312 111.411-12.951 74.483 36.93 145.363 111.413 158.31 67.919 11.816 132.82-28.64 153.552-92.345-16.049-4.908-27.266-19.24-28.44-35.676z"/><path fill="#C25E2A" d="M397.36 242.144c-4.155.159-8.389-.103-12.644-.84-32.598-5.669-54.43-36.69-48.761-69.285a59.6 59.6 0 0 1 11.475-26.176c-8.493-8.953-12.8-21.665-10.52-34.755.397-2.29.991-4.496 1.742-6.615a137.967 137.967 0 0 0-12.748-2.855c-70.747-12.3-137.67 32.748-149.473 100.622-11.8 67.872 35.985 132.868 106.737 145.17 59.639 10.372 116.557-20.015 140.031-70.47-14.647-5.607-24.73-19.262-25.839-34.796z"/><path fill="#513A3A" d="M309.91 140.788c-2.333 13.393-15.078 22.367-28.474 20.037-13.398-2.33-22.367-15.078-20.037-28.476 2.33-13.395 15.075-22.365 28.471-20.037 13.403 2.33 22.372 15.078 20.04 28.476z"/><path fill="#604848" d="M300.428 125.553c-1.261 2.681-6.319 2.967-11.3.632-4.98-2.337-7.998-6.406-6.74-9.094 1.261-2.685 6.315-2.968 11.3-.631 4.983 2.337 7.999 6.405 6.74 9.093z"/><path fill="#513A3A" d="M240.11 188.323c-2.325 13.395-15.075 22.367-28.468 20.035-13.398-2.328-22.368-15.078-20.04-28.471 2.33-13.398 15.078-22.368 28.473-20.04 13.394 2.332 22.365 15.075 20.035 28.476z"/><path fill="#604848" d="M230.63 173.086c-1.26 2.686-6.32 2.969-11.301.634-4.98-2.337-8-6.408-6.74-9.093 1.261-2.686 6.317-2.97 11.3-.632 4.983 2.337 7.998 6.405 6.742 9.09z"/><path fill="#513A3A" d="M342.73 320.447c-2.328 13.393-15.073 22.365-28.474 20.037-13.395-2.33-22.37-15.075-20.04-28.47 2.33-13.4 15.078-22.373 28.474-20.043 13.398 2.33 22.37 15.08 20.04 28.476z"/><path fill="#604848" d="M333.243 305.208c-1.254 2.688-6.312 2.969-11.297.634-4.983-2.335-8-6.408-6.738-9.091 1.257-2.686 6.317-2.969 11.298-.634 4.98 2.337 7.998 6.408 6.737 9.091z"/><path fill="#513A3A" d="M340.053 241.037c-1.651 9.473-10.665 15.817-20.135 14.17-9.473-1.647-15.815-10.66-14.168-20.13 1.645-9.475 10.661-15.818 20.129-14.17 9.474 1.644 15.821 10.658 14.174 20.13z"/><path fill="#604848" d="M333.344 230.264c-.89 1.902-4.464 2.1-7.987.45-3.523-1.652-5.654-4.535-4.765-6.43.889-1.9 4.466-2.1 7.989-.446 3.523 1.651 5.654 4.531 4.763 6.426z"/><path fill="#513A3A" d="M238.676 273.946c-1.65 9.472-10.66 15.82-20.133 14.17-9.472-1.65-15.815-10.663-14.17-20.13 1.647-9.476 10.66-15.818 20.133-14.173 9.473 1.647 15.815 10.663 14.17 20.133z"/><path fill="#604848" d="M231.974 263.175c-.894 1.898-4.473 2.099-7.992.447-3.523-1.651-5.659-4.531-4.768-6.429.892-1.902 4.466-2.098 7.99-.446 3.523 1.651 5.654 4.526 4.77 6.428z"/><path fill="#513A3A" d="M394.148 289.836c-1.001 5.729-6.452 9.568-12.186 8.574-5.727-.997-9.568-6.45-8.57-12.182a10.53 10.53 0 0 1 12.182-8.574c5.73.994 9.57 6.45 8.574 12.182z"/><path fill="#604848" d="M390.092 283.316c-.54 1.148-2.705 1.27-4.838.27-2.13-1-3.418-2.74-2.883-3.892.538-1.146 2.707-1.268 4.836-.269 2.131 1.001 3.423 2.74 2.885 3.89z"/><path fill="#513A3A" d="M271.138 232.798c-.996 5.731-6.45 9.568-12.177 8.574-5.731-.997-9.573-6.452-8.576-12.182.997-5.734 6.452-9.568 12.18-8.576 5.733.994 9.572 6.452 8.573 12.184z"/><path fill="#604848" d="M267.082 226.28c-.536 1.149-2.698 1.268-4.831.271-2.134-1-3.42-2.741-2.88-3.892.536-1.147 2.7-1.27 4.828-.27 2.132 1 3.423 2.738 2.883 3.891z"/><path fill="#513A3A" d="M315.311 195.313c-.994 5.732-6.45 9.568-12.179 8.574-5.731-.999-9.573-6.455-8.574-12.184.997-5.731 6.45-9.568 12.182-8.574 5.731.997 9.57 6.452 8.571 12.184z"/><path fill="#604848" d="M311.255 188.795c-.538 1.151-2.698 1.27-4.833.272-2.134-1.002-3.423-2.742-2.883-3.89.536-1.152 2.702-1.271 4.834-.272 2.13.999 3.425 2.742 2.882 3.89z"/><path fill="#513A3A" d="M268.822 307.594c-.996 5.732-6.447 9.57-12.177 8.574-5.731-1.001-9.573-6.452-8.571-12.184.994-5.731 6.445-9.57 12.179-8.571 5.731.996 9.57 6.45 8.57 12.181z"/><path fill="#604848" d="M264.768 301.077c-.536 1.148-2.7 1.272-4.833.27-2.132-1-3.42-2.74-2.883-3.89.536-1.148 2.702-1.27 4.834-.273 2.129 1.003 3.42 2.744 2.882 3.893z"/><g fill="#AA4B22"><path d="M295.705 277.062c-4.003 4.539-12.184 3.865-18.278-1.504-6.092-5.367-7.79-13.4-3.79-17.939 4-4.538 12.181-3.867 18.278 1.502 6.096 5.371 7.785 13.403 3.79 17.941zM218.438 233.523c-.674 3.87-6.843 6.029-13.782 4.822-6.939-1.208-12.018-5.323-11.344-9.19.671-3.867 6.84-6.024 13.782-4.821 6.936 1.21 12.017 5.322 11.344 9.189zM273.113 191.876a8.317 8.317 0 0 1-9.618 6.768c-4.522-.786-7.554-5.093-6.765-9.612.79-4.525 5.093-7.555 9.61-6.768a8.316 8.316 0 0 1 6.773 9.612zM358.186 272.816c-4.14 3.75-9.386 4.705-11.72 2.131-2.335-2.578-.873-7.706 3.263-11.458 4.143-3.75 9.384-4.705 11.726-2.13 2.334 2.577.867 7.705-3.269 11.457z"/></g><path fill="#AA4B22" d="M424.612 185.719c-2.725 15.67-17.634 26.162-33.306 23.436-15.663-2.723-26.158-17.634-23.434-33.302 2.727-15.667 17.637-26.161 33.306-23.436 15.665 2.725 26.157 17.632 23.434 33.302z"/><path fill="#C25E2A" d="M424.982 179.342c-.646-13.15-10.291-24.574-23.806-26.923-9.353-1.626-18.414 1.481-24.8 7.561a30.73 30.73 0 0 0-3.907 10.554c-2.724 15.667 6.812 30.41 21.302 32.932 14.491 2.517 28.448-8.14 31.169-23.809.023-.105.028-.21.042-.315z"/><path fill="#AA4B22" d="M485.026 222.52c-2.042 11.756-13.227 19.628-24.983 17.584-11.75-2.043-19.632-13.23-17.585-24.985 2.044-11.754 13.231-19.628 24.987-17.584 11.753 2.045 19.623 13.235 17.58 24.986z"/><path fill="#C25E2A" d="M485.309 217.736c-.491-9.863-7.727-18.434-17.864-20.198-7.018-1.22-13.812 1.113-18.603 5.675a23.121 23.121 0 0 0-2.936 7.915c-2.042 11.753 5.114 22.814 15.99 24.704 10.867 1.89 21.336-6.104 23.383-17.86.016-.079.018-.156.03-.236z"/><path fill="#AA4B22" d="M448.538 125.691c-1.322 7.62-8.577 12.722-16.19 11.396-7.619-1.324-12.721-8.572-11.395-16.192 1.325-7.617 8.572-12.717 16.192-11.395 7.617 1.326 12.715 8.574 11.393 16.191z"/><path fill="#C25E2A" d="M448.718 122.591c-.318-6.393-5.007-11.945-11.573-13.089-4.548-.788-8.949.72-12.055 3.678a14.924 14.924 0 0 0-1.902 5.13c-1.322 7.618 3.31 14.786 10.356 16.011 7.044 1.224 13.831-3.958 15.157-11.575.01-.052.01-.1.017-.155z"/><path fill="#FAC340" d="m319.876 37.2 15.592-4.962-15.592-4.965-4.955-15.585-4.957 15.585-15.593 4.965 15.593 4.962 4.957 15.58zM58.03 325.07l26.524-8.443-26.525-8.44-8.424-26.507-8.438 26.506-26.515 8.44 26.515 8.444 8.438 26.499zM143.199 372.731l15.595-4.962-15.595-4.962-4.95-15.587-4.965 15.587-15.587 4.962 15.587 4.962 4.965 15.58z"/></g></svg>