<svg width="300" height="293" viewBox="0 0 300 293" fill="none" xmlns="http://www.w3.org/2000/svg">
<g id="type=Default">
<g id="Vector">
<path d="M214.96 229.506C226.323 239.758 227.349 257.566 214.998 266.603C203.001 275.382 189.585 282.16 175.267 286.607C152.082 293.808 127.385 294.631 103.772 288.991C80.1586 283.351 58.4999 271.456 41.0714 254.555C23.6428 237.654 11.0877 216.371 4.72493 192.942C-1.63779 169.513 -1.57323 144.803 4.91182 121.407C11.3969 98.0117 24.0631 76.7946 41.5797 59.9848C59.0964 43.175 80.8169 31.393 104.459 25.8765C119.06 22.4697 134.061 21.5302 148.851 23.0343C164.077 24.5827 172.2 40.4634 167.584 55.055C162.968 69.6467 147.188 77.2007 131.897 77.8295C126.917 78.0343 121.947 78.7064 117.053 79.8483C103.103 83.103 90.2884 90.0544 79.9535 99.9722C69.6187 109.89 62.1457 122.408 58.3195 136.211C54.4933 150.015 54.4552 164.594 58.2092 178.417C61.9632 192.24 69.3708 204.797 79.6536 214.769C89.9365 224.74 102.715 231.758 116.647 235.086C130.579 238.414 145.15 237.928 158.829 233.679C163.628 232.189 168.256 230.254 172.656 227.912C186.164 220.719 203.598 219.253 214.96 229.506Z" fill="#CF313E"/>
<path d="M194.856 44.6359C197.92 47.4059 197.92 52.2172 194.856 54.9872L147.484 97.8083C142.997 101.864 135.828 98.6801 135.828 92.6327V6.99046C135.828 0.943024 142.997 -2.24044 147.484 1.81481L194.856 44.6359Z" fill="#CF313E"/>
</g>
<path id="Subtract" d="M189.351 88.9932C189.399 89.7677 189.472 90.544 189.57 91.3211C190.25 96.6821 192.019 101.53 194.594 105.731C193.584 110.62 193.974 115.865 196.05 120.864C199.688 129.626 206.988 134.81 214.93 136.343C214.921 137.175 214.969 138.014 215.076 138.855C216.464 149.799 226.797 156.524 236.746 154.614L242.335 223.113C242.827 229.14 235.94 232.896 231.139 229.219L136.342 156.611C133.063 154.099 132.672 149.304 135.5 146.294L189.351 88.9932Z" fill="#FFA500"/>
<circle id="Ellipse 2" cx="225" cy="108.678" r="3.48837" fill="#FFA500"/>
<circle id="Ellipse 3" cx="258.14" cy="98.213" r="5.23256" fill="#FFA500"/>
<circle id="Ellipse 4" cx="270.349" cy="67.6897" r="8.72093" fill="#FFA500"/>
<circle id="Ellipse 5" cx="294.768" cy="83.3869" r="5.23256" fill="#FFA500"/>
</g>
</svg>
